<svg id="visual" viewBox="0 0 900 600" width="900" height="600" xmlns="http://www.w3.org/2000/svg" xmlns:xlink="http://www.w3.org/1999/xlink" version="1.1"><path d="M0 476L21.5 472.5C43 469 86 462 128.8 460.5C171.7 459 214.3 463 257.2 470.2C300 477.3 343 487.7 385.8 489.7C428.7 491.7 471.3 485.3 514.2 483.7C557 482 600 485 642.8 481.2C685.7 477.3 728.3 466.7 771.2 461.8C814 457 857 458 878.5 458.5L900 459L900 601L878.5 601C857 601 814 601 771.2 601C728.3 601 685.7 601 642.8 601C600 601 557 601 514.2 601C471.3 601 428.7 601 385.8 601C343 601 300 601 257.2 601C214.3 601 171.7 601 128.8 601C86 601 43 601 21.5 601L0 601Z" fill="#8fc382"></path><path d="M0 509L21.5 510.8C43 512.7 86 516.3 128.8 513.8C171.7 511.3 214.3 502.7 257.2 497C300 491.3 343 488.7 385.8 489C428.7 489.3 471.3 492.7 514.2 496C557 499.3 600 502.7 642.8 502.7C685.7 502.7 728.3 499.3 771.2 500.3C814 501.3 857 506.7 878.5 509.3L900 512L900 601L878.5 601C857 601 814 601 771.2 601C728.3 601 685.7 601 642.8 601C600 601 557 601 514.2 601C471.3 601 428.7 601 385.8 601C343 601 300 601 257.2 601C214.3 601 171.7 601 128.8 601C86 601 43 601 21.5 601L0 601Z" fill="#74a268"></path><path d="M0 528L21.5 530.8C43 533.7 86 539.3 128.8 540C171.7 540.7 214.3 536.3 257.2 533.3C300 530.3 343 528.7 385.8 524.7C428.7 520.7 471.3 514.3 514.2 513.8C557 513.3 600 518.7 642.8 524.3C685.7 530 728.3 536 771.2 536.7C814 537.3 857 532.7 878.5 530.3L900 528L900 601L878.5 601C857 601 814 601 771.2 601C728.3 601 685.7 601 642.8 601C600 601 557 601 514.2 601C471.3 601 428.7 601 385.8 601C343 601 300 601 257.2 601C214.3 601 171.7 601 128.8 601C86 601 43 601 21.5 601L0 601Z" fill="#5a8350"></path><path d="M0 545L21.5 544.7C43 544.3 86 543.7 128.8 544.2C171.7 544.7 214.3 546.3 257.2 548.7C300 551 343 554 385.8 554.8C428.7 555.7 471.3 554.3 514.2 555.5C557 556.7 600 560.3 642.8 557.7C685.7 555 728.3 546 771.2 545.2C814 544.3 857 551.7 878.5 555.3L900 559L900 601L878.5 601C857 601 814 601 771.2 601C728.3 601 685.7 601 642.8 601C600 601 557 601 514.2 601C471.3 601 428.7 601 385.8 601C343 601 300 601 257.2 601C214.3 601 171.7 601 128.8 601C86 601 43 601 21.5 601L0 601Z" fill="#416539"></path><path d="M0 568L21.5 570.3C43 572.7 86 577.3 128.8 579.7C171.7 582 214.3 582 257.2 581.7C300 581.3 343 580.7 385.8 579.8C428.7 579 471.3 578 514.2 578C557 578 600 579 642.8 578.5C685.7 578 728.3 576 771.2 574.2C814 572.3 857 570.7 878.5 569.8L900 569L900 601L878.5 601C857 601 814 601 771.2 601C728.3 601 685.7 601 642.8 601C600 601 557 601 514.2 601C471.3 601 428.7 601 385.8 601C343 601 300 601 257.2 601C214.3 601 171.7 601 128.8 601C86 601 43 601 21.5 601L0 601Z" fill="#2a4823"></path></svg>